<mxfile host="app.diagrams.net" modified="2024-03-29T07:49:39.301Z" agent="Mozilla/5.0 (Macintosh; Intel Mac OS X 10_15_7) AppleWebKit/537.36 (KHTML, like Gecko) Chrome/122.0.0.0 Safari/537.36" version="24.2.1" etag="Mc8eDbS5zY1nVx6aVSrK" type="github">
  <diagram name="第 1 页" id="gRIdvFuk5WIifYGw7Flc">
    <mxGraphModel>
      <root>
        <mxCell id="0" />
        <mxCell id="1" parent="0" />
      </root>
    </mxGraphModel>
  </diagram>
</mxfile>
